<svg xmlns="http://www.w3.org/2000/svg" width="64" height="64" fill="none" viewBox="0 0 64 64"><clipPath id="a" width="64" height="64" x="0" y="0" maskUnits="userSpaceOnUse" style="mask-type:luminance"><path fill="#fff" d="M64 0H0v64h64z" style="fill:#fff;fill-opacity:1"></path></clipPath><g clip-path="url(#a)"><path fill="#fff" d="M32 64c17.673 0 32-14.327 32-32S49.673 0 32 0 0 14.327 0 32s14.327 32 32 32" style="fill:#fff;fill-opacity:1"></path><path fill="#f0263c" d="M0 32c0 11.842 6.438 22.175 16 27.708V4.292C6.438 9.825 0 20.158 0 32M48 4.292v55.416C57.562 54.175 64 43.843 64 32S57.562 9.825 48 4.292M46.667 32 44 30.667l1.333-4-4 1.333L40 25.333l-4 4 1.333-8-2.63 1.306L32 17.333l-2.703 5.306-2.63-1.306 1.333 8-4-4L22.667 28l-4-1.333 1.333 4L17.333 32l8 6.667L24 41.333 30.667 40v6.667h2.666V40L40 41.333l-1.333-2.666z" style="fill:#f0263c;fill:color(display-p3 .9412 .149 .2353);fill-opacity:1"></path></g></svg>