<svg xmlns="http://www.w3.org/2000/svg" width="64" height="64" fill="none" viewBox="0 0 64 64"><g clip-path="url(#a)"><clipPath id="b" width="64" height="64" x="0" y="0" maskUnits="userSpaceOnUse" style="mask-type:luminance"><path fill="#fff" d="M64 0H0v64h64z" style="fill:#fff;fill-opacity:1"></path></clipPath><g clip-path="url(#b)"><path fill="#f0263c" d="M0 32c0 3.741.648 7.33 1.828 10.667h60.344A32 32 0 0 0 64 32c0-3.741-.648-7.33-1.828-10.667H1.828A32 32 0 0 0 0 32" style="fill:#f0263c;fill:color(display-p3 .9412 .149 .2353);fill-opacity:1"></path><path fill="#000" d="M1.828 21.333h60.344C57.778 8.906 45.932 0 32 0S6.222 8.906 1.828 21.333" style="fill:#000;fill-opacity:1"></path><path fill="#ffd400" d="M62.172 42.667H1.828C6.222 55.094 18.068 64 32 64s25.778-8.906 30.172-21.333" style="fill:#ffd400;fill:color(display-p3 1 .8314 0);fill-opacity:1"></path></g></g><defs><clipPath id="a"><path fill="#fff" d="M0 0h64v64H0z" style="fill:#fff;fill-opacity:1"></path></clipPath></defs></svg>