<svg xmlns="http://www.w3.org/2000/svg" width="64" height="64" fill="none" viewBox="0 0 64 64"><clipPath id="a" width="64" height="64" x="0" y="0" maskUnits="userSpaceOnUse" style="mask-type:luminance"><path fill="#fff" d="M64 0H0v64h64z" style="fill:#fff;fill-opacity:1"></path></clipPath><g clip-path="url(#a)"><path fill="#191977" d="M32 64c17.673 0 32-14.327 32-32S49.673 0 32 0 0 14.327 0 32s14.327 32 32 32" style="fill:#191977;fill:color(display-p3 .098 .098 .4667);fill-opacity:1"></path><path fill="#ffd400" d="M35.333 7.333 32 4l-3.333 3.333L32 10.667zM22.553 8.971 18 7.751l-1.22 4.554 4.553 1.22zM12.305 16.78 7.75 18l1.22 4.553 4.554-1.22zM7.333 28.667 4 32l3.333 3.333L10.667 32zM8.971 41.447 7.751 46l4.554 1.22 1.22-4.553zM16.78 51.695 18 56.25l4.553-1.22-1.22-4.554zM28.667 56.667 32 60l3.333-3.333L32 53.333zM41.447 55.029 46 56.249l1.22-4.554-4.553-1.22zM51.695 47.22 56.25 46l-1.22-4.553-4.554 1.22zM56.667 35.333 60 32l-3.333-3.333L53.333 32zM55.029 22.553 56.249 18l-4.554-1.22-1.22 4.553zM47.22 12.305 46 7.75l-4.553 1.22 1.22 4.554z" style="fill:#ffd400;fill:color(display-p3 1 .8314 0);fill-opacity:1"></path></g></svg>