<svg xmlns="http://www.w3.org/2000/svg" width="64" height="64" fill="none" viewBox="0 0 64 64"><clipPath id="a" width="64" height="64" x="0" y="0" maskUnits="userSpaceOnUse" style="mask-type:luminance"><path fill="#fff" d="M64 0H0v64h64z" style="fill:#fff;fill-opacity:1"></path></clipPath><g clip-path="url(#a)"><path fill="#fff" d="M0 32c0 3.741.648 7.33 1.828 10.667h60.344A32 32 0 0 0 64 32c0-3.741-.648-7.33-1.828-10.666H1.828A32 32 0 0 0 0 32" style="fill:#fff;fill-opacity:1"></path><path fill="#f0263c" d="M1.828 21.333h60.344C57.778 8.906 45.932 0 32 0S6.222 8.906 1.828 21.333" style="fill:#f0263c;fill:color(display-p3 .9412 .149 .2353);fill-opacity:1"></path><path fill="#2d25c5" d="M62.172 42.667H1.828C6.222 55.094 18.068 64 32 64s25.778-8.906 30.172-21.333" style="fill:#2d25c5;fill:color(display-p3 .1765 .1451 .7725);fill-opacity:1"></path></g></svg>